solid SECRET _1
facet normal -0.0 -0.0 1.0
  outer loop
    vertex 43.999999999999964 0.0 0.0
    vertex 0.0 44.000000000000036 0.0
    vertex 0.0 0.0 0.0
  endloop
endfacet
facet normal -0.0 -0.0 1.0
  outer loop
    vertex 0.0 44.000000000000036 0.0
    vertex 43.999999999999964 0.0 0.0
    vertex 0.0 46.00000000000001 0.0
  endloop
endfacet
facet normal -0.0 -0.0 1.0
  outer loop
    vertex 0.0 46.00000000000001 0.0
    vertex 43.999999999999964 0.0 0.0
    vertex 43.999999999999964 46.00000000000001 0.0
  endloop
endfacet
facet normal -0.0 -0.0 1.0
  outer loop
    vertex 43.999999999999964 46.00000000000001 0.0
    vertex 43.999999999999964 0.0 0.0
    vertex 43.999999999999964 4.400000000000003 0.0
  endloop
endfacet
facet normal -0.0 -0.0 1.0
  outer loop
    vertex 43.999999999999964 46.00000000000001 0.0
    vertex 43.999999999999964 4.400000000000003 0.0
    vertex 43.999999999999964 44.000000000000036 0.0
  endloop
endfacet
facet normal 0.0 -1.0 0.0
  outer loop
    vertex 43.999999999999964 0.0 4.4
    vertex 0.0 0.0 0.0
    vertex 43.999999999999964 0.0 0.0
  endloop
endfacet
facet normal 0.0 -1.0 0.0
  outer loop
    vertex 0.0 0.0 0.0
    vertex 43.999999999999964 0.0 4.4
    vertex 0.0 0.0 60.0
  endloop
endfacet
facet normal 0.0 -1.0 0.0
  outer loop
    vertex 0.0 0.0 60.0
    vertex 43.999999999999964 0.0 4.4
    vertex 43.999999999999964 0.0 60.0
  endloop
endfacet
facet normal -1.0 0.0 0.0
  outer loop
    vertex 0.0 22.000000000000032 70.0
    vertex 0.0 0.0 0.0
    vertex 0.0 0.0 60.0
  endloop
endfacet
facet normal -1.0 0.0 0.0
  outer loop
    vertex 0.0 0.0 0.0
    vertex 0.0 22.000000000000032 70.0
    vertex 0.0 44.000000000000036 0.0
  endloop
endfacet
facet normal -1.0 0.0 0.0
  outer loop
    vertex 0.0 44.000000000000036 0.0
    vertex 0.0 22.000000000000032 70.0
    vertex 0.0 46.00000000000001 60.0
  endloop
endfacet
facet normal -1.0 0.0 0.0
  outer loop
    vertex 0.0 44.000000000000036 0.0
    vertex 0.0 46.00000000000001 60.0
    vertex 0.0 46.00000000000001 0.0
  endloop
endfacet
facet normal -0.0 -0.0 1.0
  outer loop
    vertex 41.99999999999997 1.9999999999999962 0.9999999999999999
    vertex 2.0000000000000075 43.99999999999992 0.9999999999999999
    vertex 2.0000000000000075 1.9999999999999962 0.9999999999999999
  endloop
endfacet
facet normal -0.0 -0.0 1.0
  outer loop
    vertex 2.0000000000000075 43.99999999999992 0.9999999999999999
    vertex 41.99999999999997 1.9999999999999962 0.9999999999999999
    vertex 41.99999999999997 43.99999999999992 0.9999999999999999
  endloop
endfacet
facet normal -1.0 0.0 0.0
  outer loop
    vertex 41.99999999999997 39.600000000000044 60.0
    vertex 41.99999999999997 37.60000000000006 44.00000000000001
    vertex 41.99999999999997 22.000000000000032 70.0
  endloop
endfacet
facet normal -1.0 0.0 0.0
  outer loop
    vertex 41.99999999999997 37.60000000000006 44.00000000000001
    vertex 41.99999999999997 39.600000000000044 60.0
    vertex 41.99999999999997 39.600000000000044 44.00000000000001
  endloop
endfacet
facet normal -1.0 0.0 0.0
  outer loop
    vertex 41.99999999999997 22.000000000000032 70.0
    vertex 41.99999999999997 1.9999999999999962 0.9999999999999999
    vertex 41.99999999999997 1.9999999999991165 60.90909090909188
  endloop
endfacet
facet normal -1.0 0.0 0.0
  outer loop
    vertex 41.99999999999997 1.9999999999999962 0.9999999999999999
    vertex 41.99999999999997 22.000000000000032 70.0
    vertex 41.99999999999997 43.99999999999992 0.9999999999999999
  endloop
endfacet
facet normal -1.0 0.0 0.0
  outer loop
    vertex 41.99999999999997 43.99999999999992 0.9999999999999999
    vertex 41.99999999999997 22.000000000000032 70.0
    vertex 41.99999999999997 37.60000000000006 42.00000000000001
  endloop
endfacet
facet normal -1.0 0.0 0.0
  outer loop
    vertex 41.99999999999997 37.60000000000006 42.00000000000001
    vertex 41.99999999999997 22.000000000000032 70.0
    vertex 41.99999999999997 37.60000000000006 44.00000000000001
  endloop
endfacet
facet normal -1.0 0.0 0.0
  outer loop
    vertex 41.99999999999997 43.99999999999992 0.9999999999999999
    vertex 41.99999999999997 37.60000000000006 42.00000000000001
    vertex 41.99999999999997 43.99999999999992 42.00000000000001
  endloop
endfacet
facet normal 0.0 0.0 -1.0
  outer loop
    vertex 45.99999999999996 4.400000000000003 0.0
    vertex 43.999999999999964 0.0 0.0
    vertex 43.999999999999964 4.400000000000003 0.0
  endloop
endfacet
facet normal 0.0 0.0 -1.0
  outer loop
    vertex 43.999999999999964 0.0 0.0
    vertex 45.99999999999996 4.400000000000003 0.0
    vertex 45.99999999999996 0.0 0.0
  endloop
endfacet
facet normal -0.0 -0.0 1.0
  outer loop
    vertex 45.99999999999996 0.0 4.4
    vertex 43.999999999999964 4.400000000000003 4.4
    vertex 43.999999999999964 0.0 4.4
  endloop
endfacet
facet normal -0.0 -0.0 1.0
  outer loop
    vertex 43.999999999999964 4.400000000000003 4.4
    vertex 45.99999999999996 0.0 4.4
    vertex 45.99999999999996 4.400000000000003 4.4
  endloop
endfacet
facet normal -0.0 1.0 -0.0
  outer loop
    vertex 43.999999999999964 4.400000000000003 4.4
    vertex 45.99999999999996 4.400000000000003 0.0
    vertex 43.999999999999964 4.400000000000003 0.0
  endloop
endfacet
facet normal -0.0 1.0 -0.0
  outer loop
    vertex 45.99999999999996 4.400000000000003 0.0
    vertex 43.999999999999964 4.400000000000003 4.4
    vertex 45.99999999999996 4.400000000000003 4.4
  endloop
endfacet
facet normal 1.0 -0.0 -0.0
  outer loop
    vertex 43.999999999999964 4.400000000000003 0.0
    vertex 43.999999999999964 0.0 4.4
    vertex 43.999999999999964 0.0 0.0
  endloop
endfacet
facet normal 1.0 -0.0 -0.0
  outer loop
    vertex 43.999999999999964 0.0 4.4
    vertex 43.999999999999964 4.400000000000003 0.0
    vertex 43.999999999999964 4.400000000000003 4.4
  endloop
endfacet
facet normal 0.0 -1.0 0.0
  outer loop
    vertex 45.99999999999996 0.0 4.4
    vertex 43.999999999999964 0.0 0.0
    vertex 45.99999999999996 0.0 0.0
  endloop
endfacet
facet normal 0.0 -1.0 0.0
  outer loop
    vertex 43.999999999999964 0.0 0.0
    vertex 45.99999999999996 0.0 4.4
    vertex 43.999999999999964 0.0 4.4
  endloop
endfacet
facet normal 1.0 -0.0 -0.0
  outer loop
    vertex 45.99999999999996 4.400000000000003 0.0
    vertex 45.99999999999996 0.0 4.4
    vertex 45.99999999999996 0.0 0.0
  endloop
endfacet
facet normal 1.0 -0.0 -0.0
  outer loop
    vertex 45.99999999999996 0.0 4.4
    vertex 45.99999999999996 4.400000000000003 0.0
    vertex 45.99999999999996 4.400000000000003 4.4
  endloop
endfacet
facet normal 1.0 -0.0 -0.0
  outer loop
    vertex 43.999999999999964 44.000000000000036 0.0
    vertex 43.999999999999964 4.400000000000003 4.4
    vertex 43.999999999999964 4.400000000000003 0.0
  endloop
endfacet
facet normal 1.0 -0.0 -0.0
  outer loop
    vertex 43.999999999999964 4.400000000000003 4.4
    vertex 43.999999999999964 44.000000000000036 0.0
    vertex 43.999999999999964 8.800000000000018 4.4
  endloop
endfacet
facet normal 1.0 -0.0 -0.0
  outer loop
    vertex 43.999999999999964 8.800000000000018 4.4
    vertex 43.999999999999964 44.000000000000036 0.0
    vertex 43.999999999999964 8.800000000000018 8.8
  endloop
endfacet
facet normal 1.0 -0.0 -0.0
  outer loop
    vertex 43.999999999999964 8.800000000000018 8.8
    vertex 43.999999999999964 44.000000000000036 0.0
    vertex 43.999999999999964 13.20000000000002 8.8
  endloop
endfacet
facet normal 1.0 -0.0 -0.0
  outer loop
    vertex 43.999999999999964 13.20000000000002 8.8
    vertex 43.999999999999964 44.000000000000036 0.0
    vertex 43.999999999999964 13.20000000000002 13.200000000000001
  endloop
endfacet
facet normal 1.0 -0.0 -0.0
  outer loop
    vertex 43.999999999999964 13.20000000000002 13.200000000000001
    vertex 43.999999999999964 44.000000000000036 0.0
    vertex 43.999999999999964 17.600000000000037 13.200000000000001
  endloop
endfacet
facet normal 1.0 -0.0 -0.0
  outer loop
    vertex 43.999999999999964 17.600000000000037 13.200000000000001
    vertex 43.999999999999964 44.000000000000036 0.0
    vertex 43.999999999999964 17.600000000000037 17.6
  endloop
endfacet
facet normal 1.0 -0.0 -0.0
  outer loop
    vertex 43.999999999999964 17.600000000000037 17.6
    vertex 43.999999999999964 44.000000000000036 0.0
    vertex 43.999999999999964 22.000000000000032 17.6
  endloop
endfacet
facet normal 1.0 -0.0 -0.0
  outer loop
    vertex 43.999999999999964 22.000000000000032 17.6
    vertex 43.999999999999964 44.000000000000036 0.0
    vertex 43.999999999999964 22.000000000000032 22.000000000000004
  endloop
endfacet
facet normal 1.0 -0.0 -0.0
  outer loop
    vertex 43.999999999999964 22.000000000000032 22.000000000000004
    vertex 43.999999999999964 44.000000000000036 0.0
    vertex 43.999999999999964 26.400000000000052 22.000000000000004
  endloop
endfacet
facet normal 1.0 -0.0 -0.0
  outer loop
    vertex 43.999999999999964 26.400000000000052 22.000000000000004
    vertex 43.999999999999964 44.000000000000036 0.0
    vertex 43.999999999999964 26.400000000000052 26.400000000000002
  endloop
endfacet
facet normal 1.0 -0.0 -0.0
  outer loop
    vertex 43.999999999999964 26.400000000000052 26.400000000000002
    vertex 43.999999999999964 44.000000000000036 0.0
    vertex 43.999999999999964 30.800000000000043 26.400000000000002
  endloop
endfacet
facet normal 1.0 -0.0 -0.0
  outer loop
    vertex 43.999999999999964 30.800000000000043 26.400000000000002
    vertex 43.999999999999964 44.000000000000036 0.0
    vertex 43.999999999999964 30.800000000000043 30.8
  endloop
endfacet
facet normal 1.0 -0.0 -0.0
  outer loop
    vertex 43.999999999999964 30.800000000000043 30.8
    vertex 43.999999999999964 44.000000000000036 0.0
    vertex 43.999999999999964 35.20000000000007 30.8
  endloop
endfacet
facet normal 1.0 -0.0 -0.0
  outer loop
    vertex 43.999999999999964 35.20000000000007 30.8
    vertex 43.999999999999964 44.000000000000036 0.0
    vertex 43.999999999999964 35.20000000000007 35.2
  endloop
endfacet
facet normal 1.0 -0.0 -0.0
  outer loop
    vertex 43.999999999999964 35.20000000000007 35.2
    vertex 43.999999999999964 44.000000000000036 0.0
    vertex 43.999999999999964 39.600000000000044 35.2
  endloop
endfacet
facet normal 1.0 -0.0 -0.0
  outer loop
    vertex 43.999999999999964 39.600000000000044 35.2
    vertex 43.999999999999964 44.000000000000036 0.0
    vertex 43.999999999999964 39.600000000000044 39.60000000000001
  endloop
endfacet
facet normal 1.0 -0.0 -0.0
  outer loop
    vertex 43.999999999999964 39.600000000000044 39.60000000000001
    vertex 43.999999999999964 44.000000000000036 0.0
    vertex 43.999999999999964 46.00000000000001 39.60000000000001
  endloop
endfacet
facet normal 1.0 -0.0 -0.0
  outer loop
    vertex 43.999999999999964 46.00000000000001 39.60000000000001
    vertex 43.999999999999964 44.000000000000036 0.0
    vertex 43.999999999999964 46.00000000000001 0.0
  endloop
endfacet
facet normal 1.0 -1.0254423572901412e-14 -1.0254423572901444e-14
  outer loop
    vertex 46.00000000000005 8.800000000000018 4.4
    vertex 46.00000000000005 4.400000000000003 8.8
    vertex 45.99999999999996 4.400000000000003 4.4
  endloop
endfacet
facet normal 1.0 -1.0254423572901412e-14 -1.0254423572901444e-14
  outer loop
    vertex 46.00000000000005 4.400000000000003 8.8
    vertex 46.00000000000005 8.800000000000018 4.4
    vertex 46.00000000000005 8.800000000000018 8.8
  endloop
endfacet
facet normal 0.0 -1.0 0.0
  outer loop
    vertex 46.00000000000005 4.400000000000003 8.8
    vertex 43.999999999999964 4.400000000000003 4.4
    vertex 45.99999999999996 4.400000000000003 4.4
  endloop
endfacet
facet normal 0.0 -1.0 0.0
  outer loop
    vertex 43.999999999999964 4.400000000000003 4.4
    vertex 46.00000000000005 4.400000000000003 8.8
    vertex 43.999999999999964 4.400000000000003 8.8
  endloop
endfacet
facet normal 0.0 0.0 -1.0
  outer loop
    vertex 46.00000000000005 8.800000000000018 4.4
    vertex 43.999999999999964 4.400000000000003 4.4
    vertex 43.999999999999964 8.800000000000018 4.4
  endloop
endfacet
facet normal 0.0 0.0 -1.0
  outer loop
    vertex 43.999999999999964 4.400000000000003 4.4
    vertex 46.00000000000005 8.800000000000018 4.4
    vertex 45.99999999999996 4.400000000000003 4.4
  endloop
endfacet
facet normal -0.0 1.0 -0.0
  outer loop
    vertex 43.999999999999964 8.800000000000018 8.8
    vertex 46.00000000000005 8.800000000000018 4.4
    vertex 43.999999999999964 8.800000000000018 4.4
  endloop
endfacet
facet normal -0.0 1.0 -0.0
  outer loop
    vertex 46.00000000000005 8.800000000000018 4.4
    vertex 43.999999999999964 8.800000000000018 8.8
    vertex 46.00000000000005 8.800000000000018 8.8
  endloop
endfacet
facet normal -0.0 -0.0 1.0
  outer loop
    vertex 46.00000000000005 4.400000000000003 8.8
    vertex 43.999999999999964 8.800000000000018 8.8
    vertex 43.999999999999964 4.400000000000003 8.8
  endloop
endfacet
facet normal -0.0 -0.0 1.0
  outer loop
    vertex 43.999999999999964 8.800000000000018 8.8
    vertex 46.00000000000005 4.400000000000003 8.8
    vertex 46.00000000000005 8.800000000000018 8.8
  endloop
endfacet
facet normal 1.0 -0.0 -0.0
  outer loop
    vertex 46.00000000000005 13.20000000000002 8.8
    vertex 46.00000000000005 8.800000000000018 13.200000000000001
    vertex 46.00000000000005 8.800000000000018 8.8
  endloop
endfacet
facet normal 1.0 -0.0 -0.0
  outer loop
    vertex 46.00000000000005 8.800000000000018 13.200000000000001
    vertex 46.00000000000005 13.20000000000002 8.8
    vertex 46.00000000000005 13.20000000000002 13.200000000000001
  endloop
endfacet
facet normal 0.0 -1.0 0.0
  outer loop
    vertex 46.00000000000005 8.800000000000018 13.200000000000001
    vertex 43.999999999999964 8.800000000000018 8.8
    vertex 46.00000000000005 8.800000000000018 8.8
  endloop
endfacet
facet normal 0.0 -1.0 0.0
  outer loop
    vertex 43.999999999999964 8.800000000000018 8.8
    vertex 46.00000000000005 8.800000000000018 13.200000000000001
    vertex 43.999999999999964 8.800000000000018 13.200000000000001
  endloop
endfacet
facet normal 0.0 0.0 -1.0
  outer loop
    vertex 46.00000000000005 13.20000000000002 8.8
    vertex 43.999999999999964 8.800000000000018 8.8
    vertex 43.999999999999964 13.20000000000002 8.8
  endloop
endfacet
facet normal 0.0 0.0 -1.0
  outer loop
    vertex 43.999999999999964 8.800000000000018 8.8
    vertex 46.00000000000005 13.20000000000002 8.8
    vertex 46.00000000000005 8.800000000000018 8.8
  endloop
endfacet
facet normal -0.0 1.0 -0.0
  outer loop
    vertex 43.999999999999964 13.20000000000002 13.200000000000001
    vertex 46.00000000000005 13.20000000000002 8.8
    vertex 43.999999999999964 13.20000000000002 8.8
  endloop
endfacet
facet normal -0.0 1.0 -0.0
  outer loop
    vertex 46.00000000000005 13.20000000000002 8.8
    vertex 43.999999999999964 13.20000000000002 13.200000000000001
    vertex 46.00000000000005 13.20000000000002 13.200000000000001
  endloop
endfacet
facet normal -0.0 -0.0 1.0
  outer loop
    vertex 46.00000000000005 8.800000000000018 13.200000000000001
    vertex 43.999999999999964 13.20000000000002 13.200000000000001
    vertex 43.999999999999964 8.800000000000018 13.200000000000001
  endloop
endfacet
facet normal -0.0 -0.0 1.0
  outer loop
    vertex 43.999999999999964 13.20000000000002 13.200000000000001
    vertex 46.00000000000005 8.800000000000018 13.200000000000001
    vertex 46.00000000000005 13.20000000000002 13.200000000000001
  endloop
endfacet
facet normal 1.0 -0.0 -0.0
  outer loop
    vertex 46.00000000000005 17.600000000000037 13.200000000000001
    vertex 46.00000000000005 13.20000000000002 17.6
    vertex 46.00000000000005 13.20000000000002 13.200000000000001
  endloop
endfacet
facet normal 1.0 -0.0 -0.0
  outer loop
    vertex 46.00000000000005 13.20000000000002 17.6
    vertex 46.00000000000005 17.600000000000037 13.200000000000001
    vertex 46.00000000000005 17.600000000000037 17.6
  endloop
endfacet
facet normal 0.0 -1.0 0.0
  outer loop
    vertex 46.00000000000005 13.20000000000002 17.6
    vertex 43.999999999999964 13.20000000000002 13.200000000000001
    vertex 46.00000000000005 13.20000000000002 13.200000000000001
  endloop
endfacet
facet normal 0.0 -1.0 0.0
  outer loop
    vertex 43.999999999999964 13.20000000000002 13.200000000000001
    vertex 46.00000000000005 13.20000000000002 17.6
    vertex 43.999999999999964 13.20000000000002 17.6
  endloop
endfacet
facet normal 0.0 0.0 -1.0
  outer loop
    vertex 46.00000000000005 17.600000000000037 13.200000000000001
    vertex 43.999999999999964 13.20000000000002 13.200000000000001
    vertex 43.999999999999964 17.600000000000037 13.200000000000001
  endloop
endfacet
facet normal 0.0 0.0 -1.0
  outer loop
    vertex 43.999999999999964 13.20000000000002 13.200000000000001
    vertex 46.00000000000005 17.600000000000037 13.200000000000001
    vertex 46.00000000000005 13.20000000000002 13.200000000000001
  endloop
endfacet
facet normal -0.0 1.0 -0.0
  outer loop
    vertex 43.999999999999964 17.600000000000037 17.6
    vertex 46.00000000000005 17.600000000000037 13.200000000000001
    vertex 43.999999999999964 17.600000000000037 13.200000000000001
  endloop
endfacet
facet normal -0.0 1.0 -0.0
  outer loop
    vertex 46.00000000000005 17.600000000000037 13.200000000000001
    vertex 43.999999999999964 17.600000000000037 17.6
    vertex 46.00000000000005 17.600000000000037 17.6
  endloop
endfacet
facet normal -0.0 -0.0 1.0
  outer loop
    vertex 46.00000000000005 13.20000000000002 17.6
    vertex 43.999999999999964 17.600000000000037 17.6
    vertex 43.999999999999964 13.20000000000002 17.6
  endloop
endfacet
facet normal -0.0 -0.0 1.0
  outer loop
    vertex 43.999999999999964 17.600000000000037 17.6
    vertex 46.00000000000005 13.20000000000002 17.6
    vertex 46.00000000000005 17.600000000000037 17.6
  endloop
endfacet
facet normal 1.0 -0.0 -0.0
  outer loop
    vertex 46.00000000000005 22.000000000000032 17.6
    vertex 46.00000000000005 17.600000000000037 22.000000000000004
    vertex 46.00000000000005 17.600000000000037 17.6
  endloop
endfacet
facet normal 1.0 -0.0 -0.0
  outer loop
    vertex 46.00000000000005 17.600000000000037 22.000000000000004
    vertex 46.00000000000005 22.000000000000032 17.6
    vertex 46.00000000000005 22.000000000000032 22.000000000000004
  endloop
endfacet
facet normal 0.0 -1.0 0.0
  outer loop
    vertex 46.00000000000005 17.600000000000037 22.000000000000004
    vertex 43.999999999999964 17.600000000000037 17.6
    vertex 46.00000000000005 17.600000000000037 17.6
  endloop
endfacet
facet normal 0.0 -1.0 0.0
  outer loop
    vertex 43.999999999999964 17.600000000000037 17.6
    vertex 46.00000000000005 17.600000000000037 22.000000000000004
    vertex 43.999999999999964 17.600000000000037 22.000000000000004
  endloop
endfacet
facet normal 0.0 0.0 -1.0
  outer loop
    vertex 46.00000000000005 22.000000000000032 17.6
    vertex 43.999999999999964 17.600000000000037 17.6
    vertex 43.999999999999964 22.000000000000032 17.6
  endloop
endfacet
facet normal 0.0 0.0 -1.0
  outer loop
    vertex 43.999999999999964 17.600000000000037 17.6
    vertex 46.00000000000005 22.000000000000032 17.6
    vertex 46.00000000000005 17.600000000000037 17.6
  endloop
endfacet
facet normal -0.0 1.0 -0.0
  outer loop
    vertex 43.999999999999964 22.000000000000032 22.000000000000004
    vertex 46.00000000000005 22.000000000000032 17.6
    vertex 43.999999999999964 22.000000000000032 17.6
  endloop
endfacet
facet normal -0.0 1.0 -0.0
  outer loop
    vertex 46.00000000000005 22.000000000000032 17.6
    vertex 43.999999999999964 22.000000000000032 22.000000000000004
    vertex 46.00000000000005 22.000000000000032 22.000000000000004
  endloop
endfacet
facet normal -0.0 -0.0 1.0
  outer loop
    vertex 46.00000000000005 17.600000000000037 22.000000000000004
    vertex 43.999999999999964 22.000000000000032 22.000000000000004
    vertex 43.999999999999964 17.600000000000037 22.000000000000004
  endloop
endfacet
facet normal -0.0 -0.0 1.0
  outer loop
    vertex 43.999999999999964 22.000000000000032 22.000000000000004
    vertex 46.00000000000005 17.600000000000037 22.000000000000004
    vertex 46.00000000000005 22.000000000000032 22.000000000000004
  endloop
endfacet
facet normal 1.0 -0.0 -0.0
  outer loop
    vertex 46.00000000000005 26.400000000000052 22.000000000000004
    vertex 46.00000000000005 22.000000000000032 26.400000000000002
    vertex 46.00000000000005 22.000000000000032 22.000000000000004
  endloop
endfacet
facet normal 1.0 -0.0 -0.0
  outer loop
    vertex 46.00000000000005 22.000000000000032 26.400000000000002
    vertex 46.00000000000005 26.400000000000052 22.000000000000004
    vertex 46.00000000000005 26.400000000000052 26.400000000000002
  endloop
endfacet
facet normal 0.0 -1.0 0.0
  outer loop
    vertex 46.00000000000005 22.000000000000032 26.400000000000002
    vertex 43.999999999999964 22.000000000000032 22.000000000000004
    vertex 46.00000000000005 22.000000000000032 22.000000000000004
  endloop
endfacet
facet normal 0.0 -1.0 0.0
  outer loop
    vertex 43.999999999999964 22.000000000000032 22.000000000000004
    vertex 46.00000000000005 22.000000000000032 26.400000000000002
    vertex 43.999999999999964 22.000000000000032 26.400000000000002
  endloop
endfacet
facet normal 0.0 0.0 -1.0
  outer loop
    vertex 46.00000000000005 26.400000000000052 22.000000000000004
    vertex 43.999999999999964 22.000000000000032 22.000000000000004
    vertex 43.999999999999964 26.400000000000052 22.000000000000004
  endloop
endfacet
facet normal 0.0 0.0 -1.0
  outer loop
    vertex 43.999999999999964 22.000000000000032 22.000000000000004
    vertex 46.00000000000005 26.400000000000052 22.000000000000004
    vertex 46.00000000000005 22.000000000000032 22.000000000000004
  endloop
endfacet
facet normal -0.0 1.0 -0.0
  outer loop
    vertex 43.999999999999964 26.400000000000052 26.400000000000002
    vertex 46.00000000000005 26.400000000000052 22.000000000000004
    vertex 43.999999999999964 26.400000000000052 22.000000000000004
  endloop
endfacet
facet normal -0.0 1.0 -0.0
  outer loop
    vertex 46.00000000000005 26.400000000000052 22.000000000000004
    vertex 43.999999999999964 26.400000000000052 26.400000000000002
    vertex 46.00000000000005 26.400000000000052 26.400000000000002
  endloop
endfacet
facet normal -0.0 -0.0 1.0
  outer loop
    vertex 46.00000000000005 22.000000000000032 26.400000000000002
    vertex 43.999999999999964 26.400000000000052 26.400000000000002
    vertex 43.999999999999964 22.000000000000032 26.400000000000002
  endloop
endfacet
facet normal -0.0 -0.0 1.0
  outer loop
    vertex 43.999999999999964 26.400000000000052 26.400000000000002
    vertex 46.00000000000005 22.000000000000032 26.400000000000002
    vertex 46.00000000000005 26.400000000000052 26.400000000000002
  endloop
endfacet
facet normal 1.0 -0.0 -0.0
  outer loop
    vertex 46.00000000000005 30.800000000000043 26.400000000000002
    vertex 46.00000000000005 26.400000000000052 30.8
    vertex 46.00000000000005 26.400000000000052 26.400000000000002
  endloop
endfacet
facet normal 1.0 -0.0 -0.0
  outer loop
    vertex 46.00000000000005 26.400000000000052 30.8
    vertex 46.00000000000005 30.800000000000043 26.400000000000002
    vertex 46.00000000000005 30.800000000000043 30.8
  endloop
endfacet
facet normal 0.0 -1.0 0.0
  outer loop
    vertex 46.00000000000005 26.400000000000052 30.8
    vertex 43.999999999999964 26.400000000000052 26.400000000000002
    vertex 46.00000000000005 26.400000000000052 26.400000000000002
  endloop
endfacet
facet normal 0.0 -1.0 0.0
  outer loop
    vertex 43.999999999999964 26.400000000000052 26.400000000000002
    vertex 46.00000000000005 26.400000000000052 30.8
    vertex 43.999999999999964 26.400000000000052 30.8
  endloop
endfacet
facet normal 0.0 0.0 -1.0
  outer loop
    vertex 46.00000000000005 30.800000000000043 26.400000000000002
    vertex 43.999999999999964 26.400000000000052 26.400000000000002
    vertex 43.999999999999964 30.800000000000043 26.400000000000002
  endloop
endfacet
facet normal 0.0 0.0 -1.0
  outer loop
    vertex 43.999999999999964 26.400000000000052 26.400000000000002
    vertex 46.00000000000005 30.800000000000043 26.400000000000002
    vertex 46.00000000000005 26.400000000000052 26.400000000000002
  endloop
endfacet
facet normal -0.0 1.0 -0.0
  outer loop
    vertex 43.999999999999964 30.800000000000043 30.8
    vertex 46.00000000000005 30.800000000000043 26.400000000000002
    vertex 43.999999999999964 30.800000000000043 26.400000000000002
  endloop
endfacet
facet normal -0.0 1.0 -0.0
  outer loop
    vertex 46.00000000000005 30.800000000000043 26.400000000000002
    vertex 43.999999999999964 30.800000000000043 30.8
    vertex 46.00000000000005 30.800000000000043 30.8
  endloop
endfacet
facet normal -0.0 -0.0 1.0
  outer loop
    vertex 46.00000000000005 26.400000000000052 30.8
    vertex 43.999999999999964 30.800000000000043 30.8
    vertex 43.999999999999964 26.400000000000052 30.8
  endloop
endfacet
facet normal -0.0 -0.0 1.0
  outer loop
    vertex 43.999999999999964 30.800000000000043 30.8
    vertex 46.00000000000005 26.400000000000052 30.8
    vertex 46.00000000000005 30.800000000000043 30.8
  endloop
endfacet
facet normal 1.0 -0.0 -0.0
  outer loop
    vertex 46.00000000000005 35.20000000000007 30.8
    vertex 46.00000000000005 30.800000000000043 35.2
    vertex 46.00000000000005 30.800000000000043 30.8
  endloop
endfacet
facet normal 1.0 -0.0 -0.0
  outer loop
    vertex 46.00000000000005 30.800000000000043 35.2
    vertex 46.00000000000005 35.20000000000007 30.8
    vertex 46.00000000000005 35.20000000000007 35.2
  endloop
endfacet
facet normal 0.0 -1.0 0.0
  outer loop
    vertex 46.00000000000005 30.800000000000043 35.2
    vertex 43.999999999999964 30.800000000000043 30.8
    vertex 46.00000000000005 30.800000000000043 30.8
  endloop
endfacet
facet normal 0.0 -1.0 0.0
  outer loop
    vertex 43.999999999999964 30.800000000000043 30.8
    vertex 46.00000000000005 30.800000000000043 35.2
    vertex 43.999999999999964 30.800000000000043 35.2
  endloop
endfacet
facet normal 0.0 0.0 -1.0
  outer loop
    vertex 46.00000000000005 35.20000000000007 30.8
    vertex 43.999999999999964 30.800000000000043 30.8
    vertex 43.999999999999964 35.20000000000007 30.8
  endloop
endfacet
facet normal 0.0 0.0 -1.0
  outer loop
    vertex 43.999999999999964 30.800000000000043 30.8
    vertex 46.00000000000005 35.20000000000007 30.8
    vertex 46.00000000000005 30.800000000000043 30.8
  endloop
endfacet
facet normal -0.0 1.0 -0.0
  outer loop
    vertex 43.999999999999964 35.20000000000007 35.2
    vertex 46.00000000000005 35.20000000000007 30.8
    vertex 43.999999999999964 35.20000000000007 30.8
  endloop
endfacet
facet normal -0.0 1.0 -0.0
  outer loop
    vertex 46.00000000000005 35.20000000000007 30.8
    vertex 43.999999999999964 35.20000000000007 35.2
    vertex 46.00000000000005 35.20000000000007 35.2
  endloop
endfacet
facet normal -0.0 -0.0 1.0
  outer loop
    vertex 46.00000000000005 30.800000000000043 35.2
    vertex 43.999999999999964 35.20000000000007 35.2
    vertex 43.999999999999964 30.800000000000043 35.2
  endloop
endfacet
facet normal -0.0 -0.0 1.0
  outer loop
    vertex 43.999999999999964 35.20000000000007 35.2
    vertex 46.00000000000005 30.800000000000043 35.2
    vertex 46.00000000000005 35.20000000000007 35.2
  endloop
endfacet
facet normal 1.0 -0.0 -0.0
  outer loop
    vertex 46.00000000000005 39.600000000000044 35.2
    vertex 46.00000000000005 35.20000000000007 39.60000000000001
    vertex 46.00000000000005 35.20000000000007 35.2
  endloop
endfacet
facet normal 1.0 -0.0 -0.0
  outer loop
    vertex 46.00000000000005 35.20000000000007 39.60000000000001
    vertex 46.00000000000005 39.600000000000044 35.2
    vertex 46.00000000000005 39.600000000000044 39.60000000000001
  endloop
endfacet
facet normal 0.0 -1.0 0.0
  outer loop
    vertex 46.00000000000005 35.20000000000007 39.60000000000001
    vertex 43.999999999999964 35.20000000000007 35.2
    vertex 46.00000000000005 35.20000000000007 35.2
  endloop
endfacet
facet normal 0.0 -1.0 0.0
  outer loop
    vertex 43.999999999999964 35.20000000000007 35.2
    vertex 46.00000000000005 35.20000000000007 39.60000000000001
    vertex 43.999999999999964 35.20000000000007 39.60000000000001
  endloop
endfacet
facet normal 0.0 0.0 -1.0
  outer loop
    vertex 46.00000000000005 39.600000000000044 35.2
    vertex 43.999999999999964 35.20000000000007 35.2
    vertex 43.999999999999964 39.600000000000044 35.2
  endloop
endfacet
facet normal 0.0 0.0 -1.0
  outer loop
    vertex 43.999999999999964 35.20000000000007 35.2
    vertex 46.00000000000005 39.600000000000044 35.2
    vertex 46.00000000000005 35.20000000000007 35.2
  endloop
endfacet
facet normal -0.0 1.0 -0.0
  outer loop
    vertex 43.999999999999964 39.600000000000044 39.60000000000001
    vertex 46.00000000000005 39.600000000000044 35.2
    vertex 43.999999999999964 39.600000000000044 35.2
  endloop
endfacet
facet normal -0.0 1.0 -0.0
  outer loop
    vertex 46.00000000000005 39.600000000000044 35.2
    vertex 43.999999999999964 39.600000000000044 39.60000000000001
    vertex 46.00000000000005 39.600000000000044 39.60000000000001
  endloop
endfacet
facet normal -0.0 -0.0 1.0
  outer loop
    vertex 46.00000000000005 35.20000000000007 39.60000000000001
    vertex 43.999999999999964 39.600000000000044 39.60000000000001
    vertex 43.999999999999964 35.20000000000007 39.60000000000001
  endloop
endfacet
facet normal -0.0 -0.0 1.0
  outer loop
    vertex 43.999999999999964 39.600000000000044 39.60000000000001
    vertex 46.00000000000005 35.20000000000007 39.60000000000001
    vertex 46.00000000000005 39.600000000000044 39.60000000000001
  endloop
endfacet
facet normal 0.0 -1.0 0.0
  outer loop
    vertex 46.00000000000005 39.600000000000044 44.00000000000001
    vertex 43.999999999999964 39.600000000000044 39.60000000000001
    vertex 46.00000000000005 39.600000000000044 39.60000000000001
  endloop
endfacet
facet normal 0.0 -1.0 0.0
  outer loop
    vertex 43.999999999999964 39.600000000000044 39.60000000000001
    vertex 46.00000000000005 39.600000000000044 44.00000000000001
    vertex 43.999999999999964 39.600000000000044 44.00000000000001
  endloop
endfacet
facet normal 0.0 0.0 -1.0
  outer loop
    vertex 46.00000000000005 46.00000000000001 39.60000000000001
    vertex 43.999999999999964 39.600000000000044 39.60000000000001
    vertex 43.999999999999964 46.00000000000001 39.60000000000001
  endloop
endfacet
facet normal 0.0 0.0 -1.0
  outer loop
    vertex 43.999999999999964 39.600000000000044 39.60000000000001
    vertex 46.00000000000005 46.00000000000001 39.60000000000001
    vertex 46.00000000000005 39.600000000000044 39.60000000000001
  endloop
endfacet
facet normal -0.0 1.0 -0.0
  outer loop
    vertex 41.99999999999997 39.600000000000044 60.0
    vertex 43.999999999999964 39.600000000000044 44.00000000000001
    vertex 41.99999999999997 39.600000000000044 44.00000000000001
  endloop
endfacet
facet normal -0.0 1.0 -0.0
  outer loop
    vertex 43.999999999999964 39.600000000000044 44.00000000000001
    vertex 41.99999999999997 39.600000000000044 60.0
    vertex 43.999999999999964 39.600000000000044 60.0
  endloop
endfacet
facet normal -0.0 -0.0 1.0
  outer loop
    vertex 41.99999999999997 37.60000000000006 44.00000000000001
    vertex 41.000000000000014 43.99999999999992 44.00000000000001
    vertex 41.000000000000014 37.60000000000006 44.00000000000001
  endloop
endfacet
facet normal -0.0 -0.0 1.0
  outer loop
    vertex 41.000000000000014 43.99999999999992 44.00000000000001
    vertex 41.99999999999997 37.60000000000006 44.00000000000001
    vertex 41.99999999999997 39.600000000000044 44.00000000000001
  endloop
endfacet
facet normal -0.0 -0.0 1.0
  outer loop
    vertex 41.000000000000014 43.99999999999992 44.00000000000001
    vertex 41.99999999999997 39.600000000000044 44.00000000000001
    vertex 46.00000000000032 44.000000000000036 44.00000000000001
  endloop
endfacet
facet normal -0.0 -0.0 1.0
  outer loop
    vertex 46.00000000000032 44.000000000000036 44.00000000000001
    vertex 41.99999999999997 39.600000000000044 44.00000000000001
    vertex 43.999999999999964 39.600000000000044 44.00000000000001
  endloop
endfacet
facet normal -0.0 -0.0 1.0
  outer loop
    vertex 46.00000000000032 44.000000000000036 44.00000000000001
    vertex 43.999999999999964 39.600000000000044 44.00000000000001
    vertex 46.00000000000005 39.600000000000044 44.00000000000001
  endloop
endfacet
facet normal -0.0 1.0 -0.0
  outer loop
    vertex 0.0 46.00000000000001 60.0
    vertex 43.999999999999964 46.00000000000001 0.0
    vertex 0.0 46.00000000000001 0.0
  endloop
endfacet
facet normal -0.0 1.0 -0.0
  outer loop
    vertex 43.999999999999964 46.00000000000001 0.0
    vertex 0.0 46.00000000000001 60.0
    vertex 43.999999999999964 46.00000000000001 39.60000000000001
  endloop
endfacet
facet normal -0.0 1.0 -0.0
  outer loop
    vertex 43.999999999999964 46.00000000000001 39.60000000000001
    vertex 0.0 46.00000000000001 60.0
    vertex 46.00000000000005 46.00000000000001 39.60000000000001
  endloop
endfacet
facet normal -0.0 1.0 -0.0
  outer loop
    vertex 46.00000000000005 46.00000000000001 39.60000000000001
    vertex 0.0 46.00000000000001 60.0
    vertex 46.00000000000032 46.00000000000001 60.0
  endloop
endfacet
facet normal 5.038231507756147e-15 -1.0 4.580424344118712e-15
  outer loop
    vertex 46.00000000000032 44.000000000000824 60.83333333333452
    vertex 41.000000000000014 43.99999999999992 44.00000000000001
    vertex 46.00000000000032 44.000000000000036 44.00000000000001
  endloop
endfacet
facet normal 5.038231507756147e-15 -1.0 4.580424344118712e-15
  outer loop
    vertex 41.000000000000014 43.99999999999992 44.00000000000001
    vertex 46.00000000000032 44.000000000000824 60.83333333333452
    vertex 2.0000000000000075 43.99999999999992 60.0
  endloop
endfacet
facet normal 5.038231507756147e-15 -1.0 4.580424344118712e-15
  outer loop
    vertex 2.0000000000000075 43.99999999999992 60.0
    vertex 46.00000000000032 44.000000000000824 60.83333333333452
    vertex 1.9999999999999625 43.99999999999992 60.833333333333385
  endloop
endfacet
facet normal 5.038231507756147e-15 -1.0 4.580424344118712e-15
  outer loop
    vertex 41.99999999999997 43.99999999999992 42.00000000000001
    vertex 2.0000000000000075 43.99999999999992 0.9999999999999999
    vertex 41.99999999999997 43.99999999999992 0.9999999999999999
  endloop
endfacet
facet normal 5.038231507756147e-15 -1.0 4.580424344118712e-15
  outer loop
    vertex 2.0000000000000075 43.99999999999992 0.9999999999999999
    vertex 41.99999999999997 43.99999999999992 42.00000000000001
    vertex 41.000000000000014 43.99999999999992 42.00000000000001
  endloop
endfacet
facet normal 5.038231507756147e-15 -1.0 4.580424344118712e-15
  outer loop
    vertex 2.0000000000000075 43.99999999999992 0.9999999999999999
    vertex 41.000000000000014 43.99999999999992 42.00000000000001
    vertex 2.0000000000000075 43.99999999999992 60.0
  endloop
endfacet
facet normal 5.038231507756147e-15 -1.0 4.580424344118712e-15
  outer loop
    vertex 2.0000000000000075 43.99999999999992 60.0
    vertex 41.000000000000014 43.99999999999992 42.00000000000001
    vertex 41.000000000000014 43.99999999999992 44.00000000000001
  endloop
endfacet
facet normal -1.0 0.0 0.0
  outer loop
    vertex 41.000000000000014 43.99999999999992 44.00000000000001
    vertex 41.000000000000014 37.60000000000006 42.00000000000001
    vertex 41.000000000000014 37.60000000000006 44.00000000000001
  endloop
endfacet
facet normal -1.0 0.0 0.0
  outer loop
    vertex 41.000000000000014 37.60000000000006 42.00000000000001
    vertex 41.000000000000014 43.99999999999992 44.00000000000001
    vertex 41.000000000000014 43.99999999999992 42.00000000000001
  endloop
endfacet
facet normal 0.0 0.0 -1.0
  outer loop
    vertex 41.99999999999997 43.99999999999992 42.00000000000001
    vertex 41.000000000000014 37.60000000000006 42.00000000000001
    vertex 41.000000000000014 43.99999999999992 42.00000000000001
  endloop
endfacet
facet normal 0.0 0.0 -1.0
  outer loop
    vertex 41.000000000000014 37.60000000000006 42.00000000000001
    vertex 41.99999999999997 43.99999999999992 42.00000000000001
    vertex 41.99999999999997 37.60000000000006 42.00000000000001
  endloop
endfacet
facet normal 0.0 -1.0 0.0
  outer loop
    vertex 41.99999999999997 37.60000000000006 44.00000000000001
    vertex 41.000000000000014 37.60000000000006 42.00000000000001
    vertex 41.99999999999997 37.60000000000006 42.00000000000001
  endloop
endfacet
facet normal 0.0 -1.0 0.0
  outer loop
    vertex 41.000000000000014 37.60000000000006 42.00000000000001
    vertex 41.99999999999997 37.60000000000006 44.00000000000001
    vertex 41.000000000000014 37.60000000000006 44.00000000000001
  endloop
endfacet
facet normal -1.6165585720816665e-14 0.3846153846153872 0.9230769230769222
  outer loop
    vertex 1.9999999999999625 22.000000000000032 70.0
    vertex 0.0 46.00000000000001 60.0
    vertex 0.0 22.000000000000032 70.0
  endloop
endfacet
facet normal -1.6165585720816665e-14 0.3846153846153872 0.9230769230769222
  outer loop
    vertex 0.0 46.00000000000001 60.0
    vertex 1.9999999999999625 22.000000000000032 70.0
    vertex 1.9999999999999625 43.99999999999992 60.833333333333385
  endloop
endfacet
facet normal -1.6165585720816665e-14 0.3846153846153872 0.9230769230769222
  outer loop
    vertex 0.0 46.00000000000001 60.0
    vertex 1.9999999999999625 43.99999999999992 60.833333333333385
    vertex 46.00000000000032 46.00000000000001 60.0
  endloop
endfacet
facet normal -1.6165585720816665e-14 0.3846153846153872 0.9230769230769222
  outer loop
    vertex 46.00000000000032 46.00000000000001 60.0
    vertex 1.9999999999999625 43.99999999999992 60.833333333333385
    vertex 46.00000000000032 44.000000000000824 60.83333333333452
  endloop
endfacet
facet normal 4.8369106682064515e-17 0.4940094076095272 0.8694565573927682
  outer loop
    vertex 44.004999999999924 22.000000000000032 70.0
    vertex 41.99999999999997 39.600000000000044 60.0
    vertex 41.99999999999997 22.000000000000032 70.0
  endloop
endfacet
facet normal 4.8369106682064515e-17 0.4940094076095272 0.8694565573927682
  outer loop
    vertex 41.99999999999997 39.600000000000044 60.0
    vertex 44.004999999999924 22.000000000000032 70.0
    vertex 43.999999999999964 39.600000000000044 60.0
  endloop
endfacet
facet normal -7.055080964904419e-15 -0.41380294430117237 0.91036647746261
  outer loop
    vertex 0.0 0.0 60.0
    vertex 1.9999999999999625 1.9999999999999962 60.909090909090914
    vertex 0.0 22.000000000000032 70.0
  endloop
endfacet
facet normal -7.055080964904419e-15 -0.41380294430117237 0.91036647746261
  outer loop
    vertex 1.9999999999999625 1.9999999999999962 60.909090909090914
    vertex 0.0 0.0 60.0
    vertex 43.999999999999964 0.0 60.0
  endloop
endfacet
facet normal -7.055080964904419e-15 -0.41380294430117237 0.91036647746261
  outer loop
    vertex 1.9999999999999625 1.9999999999999962 60.909090909090914
    vertex 43.999999999999964 0.0 60.0
    vertex 41.99999999999997 1.9999999999991165 60.90909090909188
  endloop
endfacet
facet normal -7.055080964904419e-15 -0.41380294430117237 0.91036647746261
  outer loop
    vertex 41.99999999999997 1.9999999999991165 60.90909090909188
    vertex 43.999999999999964 0.0 60.0
    vertex 41.99999999999997 22.000000000000032 70.0
  endloop
endfacet
facet normal -7.055080964904419e-15 -0.41380294430117237 0.91036647746261
  outer loop
    vertex 41.99999999999997 22.000000000000032 70.0
    vertex 43.999999999999964 0.0 60.0
    vertex 44.004999999999924 22.000000000000032 70.0
  endloop
endfacet
facet normal -7.055080964904419e-15 -0.41380294430117237 0.91036647746261
  outer loop
    vertex 1.9999999999999625 22.000000000000032 70.0
    vertex 0.0 22.000000000000032 70.0
    vertex 1.9999999999999625 1.9999999999999962 60.909090909090914
  endloop
endfacet
facet normal 0.9999999987372004 2.937477774973051e-05 -4.077648863998557e-05
  outer loop
    vertex 43.999999999999964 4.400000000000003 4.4
    vertex 43.999999999999964 0.0 60.0
    vertex 43.999999999999964 0.0 4.4
  endloop
endfacet
facet normal 0.9999999987372004 2.937477774973051e-05 -4.077648863998557e-05
  outer loop
    vertex 43.999999999999964 0.0 60.0
    vertex 43.999999999999964 4.400000000000003 4.4
    vertex 43.999999999999964 4.400000000000003 8.8
  endloop
endfacet
facet normal 0.9999999987372004 2.937477774973051e-05 -4.077648863998557e-05
  outer loop
    vertex 43.999999999999964 0.0 60.0
    vertex 43.999999999999964 4.400000000000003 8.8
    vertex 44.004999999999924 22.000000000000032 70.0
  endloop
endfacet
facet normal 0.9999999987372004 2.937477774973051e-05 -4.077648863998557e-05
  outer loop
    vertex 44.004999999999924 22.000000000000032 70.0
    vertex 43.999999999999964 4.400000000000003 8.8
    vertex 43.999999999999964 8.800000000000018 13.200000000000001
  endloop
endfacet
facet normal 0.9999999987372004 2.937477774973051e-05 -4.077648863998557e-05
  outer loop
    vertex 43.999999999999964 8.800000000000018 13.200000000000001
    vertex 43.999999999999964 4.400000000000003 8.8
    vertex 43.999999999999964 8.800000000000018 8.8
  endloop
endfacet
facet normal 0.9999999987372004 2.937477774973051e-05 -4.077648863998557e-05
  outer loop
    vertex 44.004999999999924 22.000000000000032 70.0
    vertex 43.999999999999964 8.800000000000018 13.200000000000001
    vertex 43.999999999999964 13.20000000000002 17.6
  endloop
endfacet
facet normal 0.9999999987372004 2.937477774973051e-05 -4.077648863998557e-05
  outer loop
    vertex 43.999999999999964 13.20000000000002 17.6
    vertex 43.999999999999964 8.800000000000018 13.200000000000001
    vertex 43.999999999999964 13.20000000000002 13.200000000000001
  endloop
endfacet
facet normal 0.9999999987372004 2.937477774973051e-05 -4.077648863998557e-05
  outer loop
    vertex 44.004999999999924 22.000000000000032 70.0
    vertex 43.999999999999964 13.20000000000002 17.6
    vertex 43.999999999999964 17.600000000000037 22.000000000000004
  endloop
endfacet
facet normal 0.9999999987372004 2.937477774973051e-05 -4.077648863998557e-05
  outer loop
    vertex 43.999999999999964 17.600000000000037 22.000000000000004
    vertex 43.999999999999964 13.20000000000002 17.6
    vertex 43.999999999999964 17.600000000000037 17.6
  endloop
endfacet
facet normal 0.9999999987372004 2.937477774973051e-05 -4.077648863998557e-05
  outer loop
    vertex 44.004999999999924 22.000000000000032 70.0
    vertex 43.999999999999964 17.600000000000037 22.000000000000004
    vertex 43.999999999999964 22.000000000000032 22.000000000000004
  endloop
endfacet
facet normal 0.9999999987372004 2.937477774973051e-05 -4.077648863998557e-05
  outer loop
    vertex 44.004999999999924 22.000000000000032 70.0
    vertex 43.999999999999964 22.000000000000032 22.000000000000004
    vertex 43.999999999999964 22.000000000000032 26.400000000000002
  endloop
endfacet
facet normal 0.9999999987372004 2.937477774973051e-05 -4.077648863998557e-05
  outer loop
    vertex 44.004999999999924 22.000000000000032 70.0
    vertex 43.999999999999964 22.000000000000032 26.400000000000002
    vertex 43.999999999999964 26.400000000000052 26.400000000000002
  endloop
endfacet
facet normal 0.9999999987372004 2.937477774973051e-05 -4.077648863998557e-05
  outer loop
    vertex 44.004999999999924 22.000000000000032 70.0
    vertex 43.999999999999964 26.400000000000052 26.400000000000002
    vertex 43.999999999999964 26.400000000000052 30.8
  endloop
endfacet
facet normal 0.9999999987372004 2.937477774973051e-05 -4.077648863998557e-05
  outer loop
    vertex 44.004999999999924 22.000000000000032 70.0
    vertex 43.999999999999964 26.400000000000052 30.8
    vertex 43.999999999999964 39.600000000000044 60.0
  endloop
endfacet
facet normal 0.9999999987372004 2.937477774973051e-05 -4.077648863998557e-05
  outer loop
    vertex 43.999999999999964 39.600000000000044 60.0
    vertex 43.999999999999964 26.400000000000052 30.8
    vertex 43.999999999999964 30.800000000000043 35.2
  endloop
endfacet
facet normal 0.9999999987372004 2.937477774973051e-05 -4.077648863998557e-05
  outer loop
    vertex 43.999999999999964 30.800000000000043 35.2
    vertex 43.999999999999964 26.400000000000052 30.8
    vertex 43.999999999999964 30.800000000000043 30.8
  endloop
endfacet
facet normal 0.9999999987372004 2.937477774973051e-05 -4.077648863998557e-05
  outer loop
    vertex 43.999999999999964 39.600000000000044 60.0
    vertex 43.999999999999964 30.800000000000043 35.2
    vertex 43.999999999999964 35.20000000000007 39.60000000000001
  endloop
endfacet
facet normal 0.9999999987372004 2.937477774973051e-05 -4.077648863998557e-05
  outer loop
    vertex 43.999999999999964 35.20000000000007 39.60000000000001
    vertex 43.999999999999964 30.800000000000043 35.2
    vertex 43.999999999999964 35.20000000000007 35.2
  endloop
endfacet
facet normal 0.9999999987372004 2.937477774973051e-05 -4.077648863998557e-05
  outer loop
    vertex 43.999999999999964 39.600000000000044 60.0
    vertex 43.999999999999964 35.20000000000007 39.60000000000001
    vertex 43.999999999999964 39.600000000000044 39.60000000000001
  endloop
endfacet
facet normal 0.9999999987372004 2.937477774973051e-05 -4.077648863998557e-05
  outer loop
    vertex 43.999999999999964 39.600000000000044 60.0
    vertex 43.999999999999964 39.600000000000044 39.60000000000001
    vertex 43.999999999999964 39.600000000000044 44.00000000000001
  endloop
endfacet
facet normal 1.0 -1.3401789656401633e-14 -9.977639756609543e-15
  outer loop
    vertex 46.00000000000005 46.00000000000001 39.60000000000001
    vertex 46.00000000000005 39.600000000000044 44.00000000000001
    vertex 46.00000000000005 39.600000000000044 39.60000000000001
  endloop
endfacet
facet normal 1.0 -1.3401789656401633e-14 -9.977639756609543e-15
  outer loop
    vertex 46.00000000000005 39.600000000000044 44.00000000000001
    vertex 46.00000000000005 46.00000000000001 39.60000000000001
    vertex 46.00000000000032 44.000000000000036 44.00000000000001
  endloop
endfacet
facet normal 1.0 -1.3401789656401633e-14 -9.977639756609543e-15
  outer loop
    vertex 46.00000000000032 44.000000000000036 44.00000000000001
    vertex 46.00000000000005 46.00000000000001 39.60000000000001
    vertex 46.00000000000032 44.000000000000824 60.83333333333452
  endloop
endfacet
facet normal 1.0 -1.3401789656401633e-14 -9.977639756609543e-15
  outer loop
    vertex 46.00000000000032 44.000000000000824 60.83333333333452
    vertex 46.00000000000005 46.00000000000001 39.60000000000001
    vertex 46.00000000000032 46.00000000000001 60.0
  endloop
endfacet
facet normal 1.0 -3.2590419165117035e-16 5.864069101394043e-16
  outer loop
    vertex 2.0000000000000075 43.99999999999992 0.9999999999999999
    vertex 1.9999999999999625 1.9999999999999962 60.909090909090914
    vertex 2.0000000000000075 1.9999999999999962 0.9999999999999999
  endloop
endfacet
facet normal 1.0 -3.2590419165117035e-16 5.864069101394043e-16
  outer loop
    vertex 1.9999999999999625 1.9999999999999962 60.909090909090914
    vertex 2.0000000000000075 43.99999999999992 0.9999999999999999
    vertex 1.9999999999999625 22.000000000000032 70.0
  endloop
endfacet
facet normal 1.0 -3.2590419165117035e-16 5.864069101394043e-16
  outer loop
    vertex 1.9999999999999625 22.000000000000032 70.0
    vertex 2.0000000000000075 43.99999999999992 0.9999999999999999
    vertex 1.9999999999999625 43.99999999999992 60.833333333333385
  endloop
endfacet
facet normal 1.0 -3.2590419165117035e-16 5.864069101394043e-16
  outer loop
    vertex 1.9999999999999625 43.99999999999992 60.833333333333385
    vertex 2.0000000000000075 43.99999999999992 0.9999999999999999
    vertex 2.0000000000000075 43.99999999999992 60.0
  endloop
endfacet
facet normal 1.0997869281936722e-14 1.0 7.343038670792403e-15
  outer loop
    vertex 1.9999999999999625 1.9999999999999962 60.909090909090914
    vertex 41.99999999999997 1.9999999999999962 0.9999999999999999
    vertex 2.0000000000000075 1.9999999999999962 0.9999999999999999
  endloop
endfacet
facet normal 1.0997869281936722e-14 1.0 7.343038670792403e-15
  outer loop
    vertex 41.99999999999997 1.9999999999999962 0.9999999999999999
    vertex 1.9999999999999625 1.9999999999999962 60.909090909090914
    vertex 41.99999999999997 1.9999999999991165 60.90909090909188
  endloop
endfacet
endsolid SECRET _1
